# xmcd
#
# Track frame offsets: 
#        150
#        17885
#        34452
#        43699
#        62574
#        77641
#        93683
#        112941
#        121896
#        146474
#
# Disc length: 2145 seconds
#
# Revision: 2
# Processed by: cddbd v1.5.2PL0 Copyright (c) Steve Scherf et al.
# Submitted via: ExactAudioCopy v0.95b4
#
DISCID=82085f0a
DTITLE=Bill Withers - Bill Withers' Greatest Hits 
DYEAR=1981
DGENRE=R&B/Soul
TTITLE0=Just The Two Of Us
TTITLE1=Use Me
TTITLE2=Ain't No Sunshine
TTITLE3=Lovely Day
TTITLE4=I Want To Spend The Night
TTITLE5=Soul Shadows
TTITLE6=Lean On Me
TTITLE7=Grandma's Hands
TTITLE8=Hello Like Before
TTITLE9=Who Is He What Is He To You
EXTD=
EXTT0=
EXTT1=
EXTT2=
EXTT3=
EXTT4=
EXTT5=
EXTT6=
EXTT7=
EXTT8=
EXTT9=
PLAYORDER=
